<?xml version="1.0" encoding="utf-8"?>
<!-- Generator: Adobe Illustrator 26.0.1, SVG Export Plug-In . SVG Version: 6.00 Build 0)  -->
<svg version="1.1" id="Layer_1" xmlns="http://www.w3.org/2000/svg" xmlns:xlink="http://www.w3.org/1999/xlink" x="0px" y="0px"
	 viewBox="0 0 972.8 741.1" style="enable-background:new 0 0 972.8 741.1;" xml:space="preserve" class="donation-icon">
<style type="text/css">
    .donation-icon .st0{fill:currentColor;}
</style>
<g id="D16FF3_1_">
	<g>
		<path class="st0" d="M647.3,0c6.1,1.3,12.3,2.5,18.4,4c47.5,11.3,84.2,52,89.4,100.5c7,65.2-11.6,121.9-59.2,167.6
			c-26,25-53.3,48.7-80.1,72.9c-31.2,28.2-62.6,56.4-93.8,84.5c-0.2,0.2-0.6,0.3-0.4,0.2c-29.2-26.1-58.2-52-87.2-77.9
			c-26.2-23.4-52.7-46.4-78.6-70.1c-16.8-15.4-31.7-32.8-43.7-52.4c-18.1-29.5-24.9-62-26.3-96.1c-1-23.1,2.1-45.5,12.6-66.4
			C316.7,30.7,346.2,9.4,385.9,2c3.2-0.6,6.5-1.4,9.7-2c8,0,16,0,24,0c1.1,0.3,2.1,0.9,3.2,1c34,4.9,61.5,21.3,83.5,47.3
			c5.3,6.3,9.9,13.2,15.1,20.1c1.4-2.1,2.8-4.2,4.2-6.2c17.7-26,40.6-45.6,70.8-55.7c8.8-2.9,18-4.4,27-6.5C631.4,0,639.3,0,647.3,0
			z M525.8,335c8.9-0.5,17.9-0.6,26.7-1.5c24.3-2.5,43.8-14.2,59-32.8c16.4-20,26.3-43.4,28.4-69c1.4-16.9,1.9-34.3-2.5-51.3
			c-8.9-34.1-26.5-60.8-60.4-74.7c-12.8-5.2-26.1-8.6-39.7-9.6c-18.7-1.4-37.5-0.2-56.1,3.6c-29.2,6-49,23.9-62.6,49.2
			c-7.6,14.2-12,29.7-14.5,45.9c-2.7,16.9-2.4,33.6,0.7,50.1c2.9,15.5,7.9,30.5,16.4,44.1c10.6,17.2,24.5,30.1,44,36.6
			C484.9,332.1,504.9,336.1,525.8,335z"/>
		<path class="st0" d="M0,497.3c25.9-6.2,47.4-18.4,60.8-35.1c35,73.6,66.6,148.3,99.3,223.2c-12.2,1.5-20.6,9.5-30.2,15.3
			c-3.7,2.2-6.3,2.2-10-0.8c-49.7-40.3-83.4-91.6-104.7-151.4C9.7,533.1,5.7,517.2,1,501.4c-0.2-0.7-0.7-1.4-1-2.1
			C0,498.7,0,498,0,497.3z"/>
		<path class="st0" d="M377.8,542.9c14.2,17.8,31.4,31.8,51.4,42.6c19.4,10.4,40.3,15.5,62.1,16.6c29.4,1.6,58.8,3.1,88.2,2.9
			c33.6-0.3,67.1-2.9,99.5-12.7c23.1-7,41.1-20.4,49.6-43.8c8.3-22.9,1.9-58.6-25-72c-13.2-6.6-27.2-9.8-41.6-11
			c-26.2-2.1-52.4-3.5-78.6-5.2c-2.9-0.2-5.8-0.7-9.7-1.2c1.9-1.2,3.1-2,4.3-2.7c19.7-12.7,39.3-25.5,59.2-37.9
			c15.4-9.6,31.5-17.9,49.4-21.9c24-5.4,44.8,0.1,62.1,17.7c0.5,0.5,1,0.9,0.8,0.7c9.9-5.1,19.1-10.7,29-14.8
			c15.3-6.3,31.5-9,47.8-6c19.9,3.6,29.7,15.6,30.8,35.9c0,0.8,0.1,1.6,0.3,3c1.9-1.2,3.3-2.2,4.8-3.1c26.8-15.5,54.9-21.4,85-11.4
			c12.1,4,20.9,12.3,24.9,24.7c1,2.9,1.1,6.6,0.2,9.5c-5.9,20.2-19.2,35.3-35.9,47.2c-18.3,13-37.6,24.4-56.2,37
			c-55.6,37.4-110.9,75.2-166.6,112.5c-35.2,23.6-70.8,46.7-106.5,69.4c-14.3,9.1-29.6,16.6-46.4,20.2c-21,4.6-41.6,1.7-61.9-4.6
			c-27.9-8.7-53.4-22.8-78.9-36.6c-35.9-19.4-71.7-39.1-107.8-58.3c-9.9-5.3-20.5-9.5-30.9-13.7c-17.5-6.9-34.4-4.6-50.1,5
			c-9.8,5.9-18.8,13.1-28.1,19.8c-10,7.2-20.1,14-32.7,17.3c-31.4-73.4-69.1-143.7-95.6-219.4c4.3-1.2,8.3-2.2,12.2-3.5
			c23.9-7.6,45.6-19.8,67.6-31.5c27.1-14.4,54.2-29,83.6-38.4c29-9.3,58.4-12.5,88.3-4.5c24.4,6.5,45.2,19.8,64.9,35.1
			c20.9,16.2,40.7,33.9,62.5,48.8c40.1,27.4,84.9,41.8,133.8,42.2c20.8,0.2,41.6,0.3,62.4,0.9c11.5,0.3,22.7,2.4,33.4,7.2
			c19.8,8.8,19.9,38,3,48.6c-10.9,6.8-23,9.4-35.4,10.9c-25.2,2.9-50.5,2-75.7,1.3c-20.3-0.6-40.6,0.1-60.9-0.4
			c-35.5-1-71.1-2.4-105.7-11.8C398.1,550.4,388.1,546.4,377.8,542.9z"/>
		<path class="st0" d="M410.6,217.6c0.6-21.6,5.5-42,15.1-61.1c8.9-17.4,21.3-31.8,39.1-40.7c15-7.5,31-9.4,47.7-7.2
			c17.6,2.4,31.9,10.4,43.5,23.3c12.5,14,20.1,30.6,24.3,48.8c3.3,14.2,5,28.6,3.9,43.1c-2,26.8-8.8,52-26.7,73.1
			c-15,17.6-33.9,26.1-57.1,26.7c-20.3,0.5-37.2-6.7-52.6-19.2c-18.7-15.2-28.7-35.2-33.2-58.3C412.8,236.8,411.9,227.2,410.6,217.6
			z M506.5,273.9c6-1.9,11.2-3.3,16.1-5.3c2.7-1.1,5.3-2.9,7.2-5c2.6-2.9,4.6-6.3,6.8-9.6c7.7-11.8,8.2-26.3-0.4-37.5
			c-3.4-4.5-8.7-7.9-13.8-10.7c-9.5-5.1-19.5-9-29.1-14c-6.4-3.3-10.1-8.2-1.1-13.4c1.5-0.9,2.8-2.3,4.4-3.2
			c5.3-2.9,7.3-2.3,11.4,2.3c3.9,4.4,8.2,8.5,11.1,11.4c7.1-2.8,12.4-4.9,17.8-7c-0.6-1.5-1.2-2.3-1.2-3.3c-1-12-8.4-19.4-18.9-22.5
			c-8.1-2.4-12-5.7-10.3-14.2c0-0.2-0.3-0.5-0.5-0.9c-5,0-10.1,0-15.4,0c0,2.2-0.2,4,0,5.8c0.5,4.2-0.7,6-5.4,7.3
			c-13.6,3.9-23.1,13-25.4,27.1c-2.3,14.4,3.1,26.5,15.1,35.7c8.3,6.3,18.1,7.7,27.5,10.8c3.9,1.3,8.4,1.9,10.1,6.7
			c2,5.6,1.2,11.1-2.8,14.4c-5.1,4.2-11.1,3.6-16.8,1.9c-8-2.5-12.2-8.4-12.7-17.7c-8,2.1-15.4,4.1-23.5,6.2c2,6,3,11.8,5.7,16.6
			c5.2,9.2,14.2,13.8,23.8,17.1c3,1,4.5,2.2,4.4,5.8c-0.2,11.2-2,9.7,10,10c4.2,0.1,5.6-2,5.8-5.5
			C506.6,279.8,506.5,276.5,506.5,273.9z"/>
		<path class="st0" d="M625.8,183.2c-10.4,5.9-21.7,0-32.7,1.8c-1.4-4.6-2.8-9-4.5-14.6c11.4,0.5,21.7,1,32,1.4
			c3.2,0.1,3.8,1.6,3.8,4.4C624.5,178.1,625.2,180.2,625.8,183.2z"/>
		<path class="st0" d="M616.5,274.6c-3.1,4.4-5.4,7.8-7.8,11c-0.5,0.6-1.7,0.9-2.6,0.9c-10.1,0.1-20.2,0-30.3,0
			c-0.1-7.6,8.3-11.4,14.8-11.8C598.7,274.2,606.8,274.6,616.5,274.6z"/>
		<path class="st0" d="M576.8,143.4c10.6,0,21.2,0,31.6,0c2.3,3.6,4.6,7,7.4,11.3c-11.4,0-21.8,0.1-32.1-0.1c-1.1,0-2.6-0.9-3.1-1.8
			C579.2,150.1,578.2,147,576.8,143.4z"/>
		<path class="st0" d="M591.5,123.4c-20.3,6.6-36.8,1.2-40.4-10.2C565.5,111.9,579.3,112.8,591.5,123.4z"/>
	</g>
</g>
</svg>
