<?xml version="1.0" encoding="utf-8"?>
<!-- Generator: Adobe Illustrator 26.0.1, SVG Export Plug-In . SVG Version: 6.00 Build 0)  -->
<svg version="1.1" id="Layer_1" xmlns="http://www.w3.org/2000/svg" xmlns:xlink="http://www.w3.org/1999/xlink" x="0px" y="0px"
	 viewBox="0 0 78 180.5" style="enable-background:new 0 0 78 180.5;" xml:space="preserve" class="memorial-page-icon">
<style type="text/css">
    .memorial-page-icon .st0{fill:currentColor;}
</style>
<g>
	<g>
		<path d="M0,74.1c0.2-0.2,0.6-0.3,0.6-0.5c0.9-5,4.2-7.7,8.9-8.9c7.1-1.8,14-4.3,21.1-5.5c9-1.6,18-1,26,4.3
			c6.3,4.2,8.9,10.4,9.4,17.7c0.7,9.3-2,18-4.3,26.8c-2.9,11-6.2,21.9-8.9,32.9c-1,4.1-1.4,8.4-1.6,12.6c-0.2,6.1,3.5,9.9,9.5,9.6
			c5.1-0.2,10.1-1,15.1-1.7c1.7-0.2,2,0.2,2,1.8c0.1,6.6-3.1,9.4-9.3,11.1c-7,1.9-14,4-21.2,5.4c-9.9,1.9-19.5,1.1-27.6-5.5
			c-4.1-3.4-6.5-8-7.5-13.2c-1.1-6.3-0.6-12.5,1-18.6c4.1-15.8,8.2-31.6,12.2-47.5c1-3.9,1.9-7.9,0.8-12.1c-1.1-4.3-4.7-7.6-9.2-7.3
			c-4.4,0.3-8.8,1.3-13.2,2c-1.4,0.2-2.7,0.6-4,0.9L0,74.1L0,74.1z"/>
	</g>
	<g>
		<path d="M58.1,0c1.1,0.5,2.2,1.1,3.4,1.5c8.8,3,15.4,11.8,15.1,20.9c-0.3,8.6-5.2,15.7-13.9,19.4c-9.9,4.1-20.2,1.7-27.7-6.1
			c-6.9-7.3-6.9-19.9-0.1-27.3c3.7-4,8-6.8,13.3-7.8c0.2,0,0.4-0.4,0.6-0.6L58.1,0L58.1,0z"/>
	</g>
</g>
</svg>
