<svg id="logo" width="266" height="48" viewBox="0 0 266 48" fill="none" xmlns="http://www.w3.org/2000/svg">
  <path d="M65.2183 32.3892L71.1089 15.3828H74.0825L66.436 36H64.0288L56.3965 15.3828H59.356L65.2183 32.3892ZM85.2549 36C85.1038 35.6979 84.9811 35.1598 84.8867 34.3857C83.6689 35.6507 82.2152 36.2832 80.5254 36.2832C79.015 36.2832 77.7736 35.8584 76.8013 35.0088C75.8384 34.1497 75.3569 33.0641 75.3569 31.752C75.3569 30.1566 75.9611 28.9199 77.1694 28.042C78.3872 27.1546 80.0959 26.7109 82.2954 26.7109H84.8442V25.5073C84.8442 24.5916 84.5705 23.8647 84.0229 23.3267C83.4754 22.7791 82.6683 22.5054 81.6016 22.5054C80.667 22.5054 79.8835 22.7414 79.251 23.2134C78.6185 23.6854 78.3022 24.2565 78.3022 24.9268H75.6685C75.6685 24.1621 75.9375 23.4258 76.4756 22.7178C77.0231 22.0003 77.7594 21.4339 78.6846 21.0186C79.6191 20.6032 80.6434 20.3955 81.7573 20.3955C83.5226 20.3955 84.9056 20.8392 85.9062 21.7266C86.9069 22.6045 87.4261 23.8175 87.4639 25.3657V32.4175C87.4639 33.8241 87.6432 34.9427 88.002 35.7734V36H85.2549ZM80.9077 34.0034C81.729 34.0034 82.5078 33.791 83.2441 33.3662C83.9805 32.9414 84.5138 32.3892 84.8442 31.7095V28.5659H82.791C79.5814 28.5659 77.9766 29.5052 77.9766 31.3838C77.9766 32.2051 78.2503 32.847 78.7979 33.3096C79.3454 33.7721 80.0487 34.0034 80.9077 34.0034ZM85.085 15.9067C85.085 16.728 84.7923 17.4172 84.207 17.9741C83.6217 18.5216 82.8996 18.7954 82.0405 18.7954C81.172 18.7954 80.4451 18.5169 79.8599 17.96C79.284 17.403 78.9961 16.7186 78.9961 15.9067C78.9961 15.0949 79.284 14.401 79.8599 13.8252C80.4451 13.2493 81.172 12.9614 82.0405 12.9614C82.909 12.9614 83.6312 13.2493 84.207 13.8252C84.7923 14.401 85.085 15.0949 85.085 15.9067ZM80.3979 15.9067C80.3979 16.3504 80.5537 16.7327 80.8652 17.0537C81.1862 17.3747 81.578 17.5352 82.0405 17.5352C82.4937 17.5352 82.8807 17.3794 83.2017 17.0679C83.5226 16.7563 83.6831 16.3693 83.6831 15.9067C83.6831 15.4442 83.5226 15.0524 83.2017 14.7314C82.8901 14.401 82.5031 14.2358 82.0405 14.2358C81.5685 14.2358 81.1768 14.401 80.8652 14.7314C80.5537 15.0618 80.3979 15.4536 80.3979 15.9067ZM98.9761 23.0293C98.5796 22.9632 98.1501 22.9302 97.6875 22.9302C95.9694 22.9302 94.8035 23.6618 94.1899 25.125V36H91.5703V20.6787H94.1191L94.1616 22.4487C95.0207 21.0799 96.2384 20.3955 97.8149 20.3955C98.3247 20.3955 98.7118 20.4616 98.9761 20.5938V23.0293ZM107.472 36.2832C105.395 36.2832 103.706 35.6035 102.403 34.2441C101.1 32.8753 100.449 31.0487 100.449 28.7642V28.2827C100.449 26.7629 100.737 25.4082 101.312 24.2188C101.898 23.0199 102.71 22.0853 103.748 21.415C104.796 20.7354 105.929 20.3955 107.146 20.3955C109.138 20.3955 110.687 21.0516 111.791 22.3638C112.896 23.6759 113.448 25.5545 113.448 27.9995V29.0898H103.068C103.106 30.6003 103.545 31.8228 104.385 32.7573C105.235 33.6825 106.311 34.145 107.614 34.145C108.539 34.145 109.322 33.9562 109.964 33.5786C110.606 33.201 111.168 32.7007 111.649 32.0776L113.25 33.3237C111.966 35.2967 110.04 36.2832 107.472 36.2832ZM107.146 22.5479C106.089 22.5479 105.202 22.9349 104.484 23.709C103.767 24.4736 103.323 25.5498 103.153 26.9375H110.828V26.7393C110.753 25.4082 110.394 24.3792 109.752 23.6523C109.11 22.916 108.242 22.5479 107.146 22.5479ZM127.608 15.3828L134.348 32.2051L141.088 15.3828H144.614V36H141.896V27.9712L142.15 19.3052L135.382 36H133.3L126.546 19.3477L126.815 27.9712V36H124.096V15.3828H127.608ZM151.85 36H149.23V20.6787H151.85V36ZM149.018 16.6147C149.018 16.1899 149.146 15.8312 149.4 15.5386C149.665 15.2459 150.052 15.0996 150.562 15.0996C151.071 15.0996 151.458 15.2459 151.723 15.5386C151.987 15.8312 152.119 16.1899 152.119 16.6147C152.119 17.0396 151.987 17.3936 151.723 17.6768C151.458 17.96 151.071 18.1016 150.562 18.1016C150.052 18.1016 149.665 17.96 149.4 17.6768C149.146 17.3936 149.018 17.0396 149.018 16.6147ZM158.534 20.6787L158.619 22.6045C159.789 21.1318 161.319 20.3955 163.207 20.3955C166.444 20.3955 168.078 22.2222 168.106 25.8755V36H165.486V25.8613C165.477 24.7568 165.222 23.9403 164.722 23.4116C164.231 22.883 163.461 22.6187 162.414 22.6187C161.564 22.6187 160.818 22.8452 160.176 23.2983C159.534 23.7515 159.034 24.3462 158.675 25.0825V36H156.056V20.6787H158.534ZM174.535 20.6787L174.62 22.6045C175.79 21.1318 177.319 20.3955 179.208 20.3955C182.445 20.3955 184.079 22.2222 184.107 25.8755V36H181.487V25.8613C181.478 24.7568 181.223 23.9403 180.723 23.4116C180.232 22.883 179.462 22.6187 178.415 22.6187C177.565 22.6187 176.819 22.8452 176.177 23.2983C175.535 23.7515 175.035 24.3462 174.676 25.0825V36H172.057V20.6787H174.535ZM194.416 36.2832C192.339 36.2832 190.649 35.6035 189.346 34.2441C188.043 32.8753 187.392 31.0487 187.392 28.7642V28.2827C187.392 26.7629 187.68 25.4082 188.256 24.2188C188.841 23.0199 189.653 22.0853 190.691 21.415C191.739 20.7354 192.872 20.3955 194.09 20.3955C196.082 20.3955 197.63 21.0516 198.734 22.3638C199.839 23.6759 200.391 25.5545 200.391 27.9995V29.0898H190.012C190.049 30.6003 190.488 31.8228 191.329 32.7573C192.178 33.6825 193.254 34.145 194.557 34.145C195.482 34.145 196.266 33.9562 196.908 33.5786C197.55 33.201 198.111 32.7007 198.593 32.0776L200.193 33.3237C198.909 35.2967 196.983 36.2832 194.416 36.2832ZM194.09 22.5479C193.033 22.5479 192.145 22.9349 191.428 23.709C190.71 24.4736 190.267 25.5498 190.097 26.9375H197.771V26.7393C197.696 25.4082 197.337 24.3792 196.695 23.6523C196.053 22.916 195.185 22.5479 194.09 22.5479ZM212.356 31.936C212.356 31.228 212.087 30.6805 211.549 30.2935C211.021 29.897 210.091 29.5571 208.76 29.2739C207.438 28.9907 206.386 28.6509 205.602 28.2544C204.828 27.8579 204.252 27.3859 203.875 26.8384C203.506 26.2909 203.322 25.6395 203.322 24.8843C203.322 23.6287 203.851 22.5667 204.908 21.6982C205.975 20.8298 207.334 20.3955 208.986 20.3955C210.723 20.3955 212.13 20.8439 213.206 21.7407C214.292 22.6375 214.834 23.7845 214.834 25.1816H212.201C212.201 24.4642 211.894 23.8459 211.28 23.3267C210.676 22.8075 209.911 22.5479 208.986 22.5479C208.033 22.5479 207.287 22.7555 206.749 23.1709C206.211 23.5863 205.942 24.1291 205.942 24.7993C205.942 25.4318 206.192 25.9085 206.692 26.2295C207.193 26.5505 208.094 26.8573 209.397 27.1499C210.709 27.4425 211.771 27.7918 212.583 28.1978C213.395 28.6037 213.994 29.0946 214.381 29.6704C214.778 30.2368 214.976 30.9307 214.976 31.752C214.976 33.1208 214.429 34.2205 213.333 35.0513C212.238 35.8726 210.818 36.2832 209.071 36.2832C207.844 36.2832 206.758 36.0661 205.814 35.6318C204.87 35.1976 204.129 34.5934 203.591 33.8193C203.063 33.0358 202.798 32.1909 202.798 31.2847H205.418C205.465 32.1626 205.814 32.8612 206.466 33.3804C207.127 33.8901 207.995 34.145 209.071 34.145C210.062 34.145 210.855 33.9468 211.45 33.5503C212.054 33.1444 212.356 32.6063 212.356 31.936ZM221.235 36H218.615V20.6787H221.235V36ZM218.403 16.6147C218.403 16.1899 218.53 15.8312 218.785 15.5386C219.049 15.2459 219.437 15.0996 219.946 15.0996C220.456 15.0996 220.843 15.2459 221.107 15.5386C221.372 15.8312 221.504 16.1899 221.504 16.6147C221.504 17.0396 221.372 17.3936 221.107 17.6768C220.843 17.96 220.456 18.1016 219.946 18.1016C219.437 18.1016 219.049 17.96 218.785 17.6768C218.53 17.3936 218.403 17.0396 218.403 16.6147ZM224.803 28.2119C224.803 25.8613 225.36 23.9733 226.474 22.5479C227.588 21.113 229.047 20.3955 230.85 20.3955C232.643 20.3955 234.064 21.0091 235.112 22.2363V14.25H237.731V36H235.324L235.197 34.3574C234.149 35.6413 232.69 36.2832 230.821 36.2832C229.047 36.2832 227.597 35.5563 226.474 34.1025C225.36 32.6488 224.803 30.7513 224.803 28.4102V28.2119ZM227.423 28.5093C227.423 30.2463 227.782 31.6056 228.499 32.5874C229.216 33.5692 230.208 34.0601 231.473 34.0601C233.134 34.0601 234.347 33.3143 235.112 31.8228V24.7852C234.328 23.3408 233.125 22.6187 231.501 22.6187C230.217 22.6187 229.216 23.1143 228.499 24.1055C227.782 25.0967 227.423 26.5646 227.423 28.5093ZM248.167 36.2832C246.091 36.2832 244.401 35.6035 243.098 34.2441C241.795 32.8753 241.144 31.0487 241.144 28.7642V28.2827C241.144 26.7629 241.432 25.4082 242.008 24.2188C242.593 23.0199 243.405 22.0853 244.443 21.415C245.491 20.7354 246.624 20.3955 247.842 20.3955C249.834 20.3955 251.382 21.0516 252.486 22.3638C253.591 23.6759 254.143 25.5545 254.143 27.9995V29.0898H243.764C243.801 30.6003 244.24 31.8228 245.081 32.7573C245.93 33.6825 247.006 34.145 248.309 34.145C249.234 34.145 250.018 33.9562 250.66 33.5786C251.302 33.201 251.863 32.7007 252.345 32.0776L253.945 33.3237C252.661 35.2967 250.735 36.2832 248.167 36.2832ZM247.842 22.5479C246.785 22.5479 245.897 22.9349 245.18 23.709C244.462 24.4736 244.019 25.5498 243.849 26.9375H251.523V26.7393C251.448 25.4082 251.089 24.3792 250.447 23.6523C249.805 22.916 248.937 22.5479 247.842 22.5479ZM264.593 23.0293C264.197 22.9632 263.767 22.9302 263.305 22.9302C261.587 22.9302 260.421 23.6618 259.807 25.125V36H257.188V20.6787H259.736L259.779 22.4487C260.638 21.0799 261.856 20.3955 263.432 20.3955C263.942 20.3955 264.329 20.4616 264.593 20.5938V23.0293Z" 
        fill="#592673"/>
  <path fill-rule="evenodd" 
        clip-rule="evenodd" 
        d="M0 24C0 10.7452 10.7452 0 24 0C37.2548 0 48 10.7452 48 24C48 37.2548 37.2548 48 24 48C10.7452 48 0 37.2548 0 24ZM12.0174 17.8595C13.0657 15.2615 15.1032 13.1864 17.6815 12.0907C20.2598 10.9949 23.1677 10.9683 25.7657 12.0166C28.3636 13.0649 30.4387 15.1023 31.5345 17.6806C32.6302 20.2589 32.6569 23.1669 31.6086 25.7648C31.2634 26.6203 30.8109 27.4191 30.2672 28.1449L36.3108 34.1894C36.8965 34.7752 36.8965 35.725 36.3106 36.3107C35.7248 36.8965 34.7751 36.8964 34.1893 36.3106L28.1459 30.2663C27.4713 30.7717 26.7332 31.1985 25.9445 31.5336C23.3662 32.6294 20.4582 32.656 17.8603 31.6077C15.2624 30.5594 13.1873 28.522 12.0915 25.9437C10.9958 23.3654 10.9691 20.4574 12.0174 17.8595ZM27.1926 27.128C27.1818 27.1382 27.1711 27.1486 27.1605 27.1593C27.1498 27.1699 27.1393 27.1807 27.129 27.1916C26.4563 27.8564 25.6585 28.3955 24.7711 28.7726C22.9251 29.5572 20.843 29.5763 18.9829 28.8257C17.1228 28.0751 15.6371 26.6163 14.8525 24.7703C14.068 22.9242 14.0489 20.8422 14.7995 18.9821C15.5501 17.122 17.0088 15.6362 18.8549 14.8517C20.7009 14.0671 22.783 14.048 24.6431 14.7986C26.5032 15.5492 27.9889 17.008 28.7735 18.854C29.558 20.7 29.5771 22.7821 28.8265 24.6422C28.4482 25.5799 27.8898 26.4225 27.1926 27.128Z" 
        fill="#592673"/>
</svg>
