<svg width="64" height="64" viewBox="0 0 64 64" fill="none" xmlns="http://www.w3.org/2000/svg">
<rect x="1" y="1" width="62" height="62" rx="7" fill="#F4ECF9" stroke="#9540BF" stroke-width="2"/>
<rect x="10" y="10" width="8" height="8" rx="1" fill="#9540BF"/>
<rect x="10" y="22" width="8" height="8" rx="1" fill="#9540BF"/>
<rect x="10" y="34" width="8" height="8" rx="1" fill="#9540BF"/>
<rect x="10" y="46" width="8" height="8" rx="1" fill="#9540BF"/>
<rect x="22" y="10" width="8" height="8" rx="1" fill="#9540BF"/>
<rect x="22" y="22" width="8" height="8" rx="1" fill="#9540BF"/>
<rect x="22" y="34" width="8" height="8" rx="1" fill="#9540BF"/>
<rect x="22" y="46" width="8" height="8" rx="1" fill="#9540BF"/>
<rect x="34" y="10" width="8" height="8" rx="1" fill="#9540BF"/>
<rect x="34" y="22" width="8" height="8" rx="1" fill="#9540BF"/>
<rect x="34" y="34" width="8" height="8" rx="1" fill="#9540BF"/>
<rect x="34" y="46" width="8" height="8" rx="1" fill="#9540BF"/>
<rect x="46" y="10" width="8" height="8" rx="1" fill="#9540BF"/>
<rect x="46" y="22" width="8" height="8" rx="1" fill="#9540BF"/>
<rect x="46" y="34" width="8" height="8" rx="1" fill="#9540BF"/>
<rect x="46" y="46" width="8" height="8" rx="1" fill="#9540BF"/>
</svg>
